<svg width="400" height="448" viewBox="0 0 400 448" fill="none" xmlns="http://www.w3.org/2000/svg">
<g clip-path="url(#clip0_1325_2150)">
<path fill-rule="evenodd" clip-rule="evenodd" d="M220.734 442.447L379.275 351.119C385.571 347.498 390.802 342.281 394.441 335.995C398.079 329.709 399.997 322.574 400 315.311V132.662C399.996 125.399 398.078 118.265 394.44 111.979C390.801 105.692 385.571 100.476 379.275 96.854L220.734 5.53096C214.429 1.90265 207.282 -0.00695801 200.008 -0.00695801C192.733 -0.00695801 185.586 1.90265 179.281 5.53096L20.726 96.854C14.4301 100.476 9.19952 105.692 5.56099 111.979C1.92247 118.265 0.00442581 125.399 0 132.662L0 315.31C0.00330847 322.573 1.92088 329.708 5.55952 335.994C9.19815 342.281 14.4293 347.497 20.726 351.118L179.281 442.447C185.586 446.075 192.733 447.984 200.008 447.984C207.282 447.984 214.429 446.075 220.734 442.447Z" fill="#0A8EFA"/>
<path fill-rule="evenodd" clip-rule="evenodd" d="M280.512 222.173C294.501 227.991 315.879 240.951 315.879 265.283C315.879 294.905 289.75 316.328 258.341 316.328H209.346V279H252.336C262.63 279 272.066 270.044 272.066 259.2C272.066 248.621 260.717 240.686 250.423 240.686H209.346V206.3H249.631C259.661 206.3 268.107 197.836 268.107 187.257C268.107 176.678 260.497 168.863 250.467 168.863H186.916V312.6C186.916 315.245 185.816 316.333 183.178 316.333H149.533C146.893 316.333 145.794 315.245 145.794 312.6V131.561L254.206 131.533C285.35 131.533 311.128 152.614 311.128 180.385C311.128 200.75 292.917 215.561 280.512 222.173ZM84.142 163.548V136.586C84.141 135.927 84.2699 135.274 84.5214 134.664C84.7729 134.055 85.1422 133.501 85.6079 133.034C86.0737 132.567 86.6269 132.197 87.2358 131.944C87.8448 131.691 88.4977 131.561 89.157 131.561H127.1V168.867H89.72C88.2992 168.82 86.9452 168.252 85.9164 167.271C84.8876 166.29 84.256 164.965 84.142 163.548V163.548Z" fill="white"/>
</g>
<defs>
<clipPath id="clip0_1325_2150">
<rect width="400" height="448" fill="white"/>
</clipPath>
</defs>
</svg>
